<svg width="20" height="21" viewBox="0 0 14 20" fill="none" xmlns="http://www.w3.org/2000/svg">
<path d="M5.74995 0.859436V3.33834C4.50386 3.62155 3.45698 4.15631 2.61323 4.94537C1.29683 6.17584 0.639404 7.86334 0.639404 10.0079C0.639404 12.129 1.28511 13.8087 2.57808 15.0469C3.43355 15.8633 4.49214 16.4141 5.74995 16.6915V19.2188H8.24995V16.8985C9.0898 16.8751 9.9023 16.7735 10.6992 16.5899C11.6171 16.3829 12.8984 16.0743 13.7539 15.6563L13.1289 9.25787H8.79683L7.39058 11.5547H10.1093L10.4218 14.1407C9.78901 14.3829 9.00386 14.418 8.28901 14.418C6.98042 14.418 5.9687 14.0352 5.25386 13.2657C4.53901 12.5001 4.18354 11.4141 4.18354 10.0079C4.18354 8.586 4.55073 7.49615 5.28901 6.73444C6.0312 5.96881 7.08589 5.586 8.44917 5.586C9.18745 5.586 9.92183 5.69147 10.6523 5.8985C11.3906 6.10553 11.9726 6.42194 12.7148 6.84381L12.4023 4.01178C11.6835 3.68561 11.3867 3.51725 10.5703 3.35006C9.83198 3.19615 9.05855 3.11334 8.24995 3.10084V0.859436H5.74995Z" fill="black"/>
</svg>
