<svg width="30" height="34" viewBox="0 0 30 34" fill="none" xmlns="http://www.w3.org/2000/svg">
<path d="M6.63475 32.1982C9.28156 32.1982 11.4272 30.0525 11.4272 27.4057C11.4272 24.759 9.28156 22.6133 6.63475 22.6133C3.98796 22.6133 1.84229 24.759 1.84229 27.4057C1.84229 30.0525 3.98796 32.1982 6.63475 32.1982Z" stroke="#332E3C" stroke-width="2" stroke-linecap="round" stroke-linejoin="round"/>
<path d="M28.9996 24.2108V5.47104C28.9996 1.47732 26.4958 0.924338 23.9614 1.61556L14.3764 4.22684C12.6253 4.70301 11.4272 6.08546 11.4272 8.08232V11.4155V13.6582V27.3904" stroke="#332E3C" stroke-width="2" stroke-linecap="round" stroke-linejoin="round"/>
<path d="M24.207 29.0029C26.8538 29.0029 28.9995 26.8574 28.9995 24.2104C28.9995 21.5637 26.8538 19.418 24.207 19.418C21.5601 19.418 19.4146 21.5637 19.4146 24.2104C19.4146 26.8574 21.5601 29.0029 24.207 29.0029Z" stroke="#332E3C" stroke-width="2" stroke-linecap="round" stroke-linejoin="round"/>
<path d="M11.4272 13.0278L28.9996 8.23535" stroke="#332E3C" stroke-width="2" stroke-linecap="round" stroke-linejoin="round"/>
</svg>
