<svg width="20" height="21" viewBox="0 0 20 20" fill="none" xmlns="http://www.w3.org/2000/svg">
<path d="M13.125 1.24994C12.2466 1.24974 11.3804 1.45529 10.5958 1.85013C9.81115 2.24497 9.12991 2.81812 8.60666 3.52364C8.08342 4.22916 7.73271 5.04744 7.58264 5.9129C7.43257 6.77836 7.48732 7.66694 7.7425 8.50744L1.25 14.9999V18.7499H5L11.4925 12.2574C12.2662 12.4923 13.0814 12.5576 13.8826 12.4489C14.6838 12.3401 15.4522 12.06 16.1353 11.6275C16.8184 11.1949 17.4003 10.6202 17.8412 9.9425C18.2822 9.26477 18.5718 8.49994 18.6904 7.70014C18.8091 6.90035 18.7539 6.08438 18.5286 5.30784C18.3033 4.53131 17.9133 3.81246 17.3851 3.20029C16.8569 2.58812 16.203 2.09702 15.4678 1.76045C14.7326 1.42388 13.9335 1.24975 13.125 1.24994ZM13.125 11.2499C12.6947 11.2498 12.2667 11.1862 11.855 11.0612L11.1381 10.8437L10.6088 11.3731L8.62063 13.3612L7.75875 12.4999L6.875 13.3837L7.73687 14.2456L6.74563 15.2368L5.88375 14.3749L5 15.2587L5.86187 16.1206L4.4825 17.4999H2.5V15.5174L8.62625 9.39119L9.15625 8.86181L8.93875 8.14494C8.67161 7.26431 8.68897 6.32187 8.98834 5.45167C9.28772 4.58147 9.85388 3.82783 10.6063 3.29796C11.3587 2.76808 12.259 2.48895 13.1792 2.50027C14.0994 2.51159 14.9926 2.81279 15.7317 3.36101C16.4708 3.90924 17.0183 4.67658 17.2961 5.55388C17.574 6.43118 17.5682 7.37376 17.2795 8.24755C16.9907 9.12135 16.4338 9.88185 15.688 10.4209C14.9421 10.9599 14.0453 11.25 13.125 11.2499Z" fill="black"/>
<path d="M13.75 7.49994C14.4404 7.49994 15 6.94029 15 6.24994C15 5.55958 14.4404 4.99994 13.75 4.99994C13.0596 4.99994 12.5 5.55958 12.5 6.24994C12.5 6.94029 13.0596 7.49994 13.75 7.49994Z" fill="black"/>
</svg>
