<svg width="48" height="48" viewBox="0 0 48 48" fill="none" xmlns="http://www.w3.org/2000/svg"><circle cx="24" cy="24" r="24" fill="#FF5A59"/><path d="M15.2893 35.5791C17.3514 35.5791 19.0231 33.9074 19.0231 31.8453C19.0231 29.7833 17.3514 28.1116 15.2893 28.1116C13.2272 28.1116 11.5555 29.7833 11.5555 31.8453C11.5555 33.9074 13.2272 35.5791 15.2893 35.5791Z" stroke="#FFFCF9" stroke-width="2" stroke-linecap="round" stroke-linejoin="round"/><path d="M32.7135 29.3562V14.7562C32.7135 11.6448 30.7629 11.2139 28.7883 11.7525L21.3208 13.7869C19.9565 14.1579 19.0231 15.2349 19.0231 16.7907V19.3875V21.1348V31.8335" stroke="#FFFCF9" stroke-width="2" stroke-linecap="round" stroke-linejoin="round"/><path d="M28.9797 33.0899C31.0418 33.0899 32.7135 31.4183 32.7135 29.3561C32.7135 27.294 31.0418 25.6223 28.9797 25.6223C26.9176 25.6223 25.246 27.294 25.246 29.3561C25.246 31.4183 26.9176 33.0899 28.9797 33.0899Z" stroke="#FFFCF9" stroke-width="2" stroke-linecap="round" stroke-linejoin="round"/><path d="M19.0231 20.6438L32.7135 16.91" stroke="#FFFCF9" stroke-width="2" stroke-linecap="round" stroke-linejoin="round"/></svg>