<?xml version="1.0" encoding="UTF-8"?><svg id="Layer_2" xmlns="http://www.w3.org/2000/svg" viewBox="0 0 257.15 257.15"><defs><style>.cls-1{fill:#f15b5b;}</style></defs><g id="Layer_1-2"><path class="cls-1" d="M128.57,0C57.56,0,0,57.56,0,128.57s57.56,128.57,128.57,128.57,128.57-57.56,128.57-128.57S199.58,0,128.57,0ZM208.32,173.93c0,8.81-7.14,15.95-15.95,15.95s-15.95-7.14-15.95-15.95v-48.24h-31.9v48.24c0,8.81-7.14,15.95-15.95,15.95s-15.95-7.14-15.95-15.95v-48.24h-31.9v48.24c0,8.81-7.14,15.95-15.95,15.95s-15.95-7.14-15.95-15.95v-48.24h31.9v-48.24c0-8.81,7.14-15.95,15.95-15.95s15.95,7.14,15.95,15.95v48.24h31.9v-48.24c0-8.81,7.14-15.95,15.95-15.95h0c8.81,0,15.95,7.14,15.95,15.95v48.24h31.9v48.24Z"/></g></svg>