<svg width="20" height="21" viewBox="0 0 16 13" fill="none" xmlns="http://www.w3.org/2000/svg">
<path d="M11.5 9.08002C11.3674 9.08002 11.2402 9.1327 11.1464 9.22646C11.0527 9.32023 11 9.44741 11 9.58002C11 9.71263 11.0527 9.8398 11.1464 9.93357C11.2402 10.0273 11.3674 10.08 11.5 10.08H13.5C13.6326 10.08 13.7598 10.0273 13.8536 9.93357C13.9473 9.8398 14 9.71263 14 9.58002C14 9.44741 13.9473 9.32023 13.8536 9.22646C13.7598 9.1327 13.6326 9.08002 13.5 9.08002H11.5ZM0 2.83002C0 2.10067 0.289731 1.4012 0.805456 0.885473C1.32118 0.369748 2.02065 0.0800171 2.75 0.0800171H13.25C13.9793 0.0800171 14.6788 0.369748 15.1945 0.885473C15.7103 1.4012 16 2.10067 16 2.83002V9.33002C16 10.0594 15.7103 10.7588 15.1945 11.2746C14.6788 11.7903 13.9793 12.08 13.25 12.08H2.75C2.02065 12.08 1.32118 11.7903 0.805456 11.2746C0.289731 10.7588 0 10.0594 0 9.33002V2.83002ZM2.75 1.08002C2.28587 1.08002 1.84075 1.26439 1.51256 1.59258C1.18437 1.92077 1 2.36589 1 2.83002V4.08002H15V2.83002C15 2.36589 14.8156 1.92077 14.4874 1.59258C14.1592 1.26439 13.7141 1.08002 13.25 1.08002H2.75ZM15 5.08002H1V9.33002C1 10.296 1.784 11.08 2.75 11.08H13.25C13.7141 11.08 14.1592 10.8956 14.4874 10.5675C14.8156 10.2393 15 9.79415 15 9.33002V5.08002Z" fill="#332E3C"/>
</svg>
