<svg width="25" height="24" viewBox="0 0 25 24" fill="none" xmlns="http://www.w3.org/2000/svg">
<path d="M17.0064 13.359L17.4611 12.906C18.0892 12.28 19.0674 12.151 19.871 12.589L21.7755 13.628C22.9989 14.295 23.2691 15.93 22.3129 16.883L20.897 18.295C20.5361 18.655 20.0894 18.917 19.5749 18.965M4.94468 5.74501C4.90978 5.12501 5.19894 4.56701 5.63167 4.13501L7.1971 2.57501C8.06855 1.70501 9.53825 1.84001 10.299 2.85901L11.5563 4.54301C12.1715 5.36701 12.1047 6.49501 11.3998 7.19701L11.1146 7.48301" stroke="black" stroke-width="1.5"/>
<path opacity="0.5" d="M19.5749 18.965C17.9497 19.117 13.9773 18.949 9.74367 14.727C5.75035 10.745 5.03444 7.33203 4.9447 5.74603" stroke="black" stroke-width="1.5"/>
<path opacity="0.5" d="M17.0064 13.359C17.0064 13.359 15.9276 14.435 12.9812 11.497C10.0348 8.55899 11.1146 7.48199 11.1146 7.48199" stroke="black" stroke-width="1.5" stroke-linecap="round"/>
</svg>
