<svg width="7" height="12" viewBox="0 0 7 12" fill="none" xmlns="http://www.w3.org/2000/svg">
<path d="M1.06641 11.9199C1.3584 11.9199 1.59326 11.8183 1.79639 11.6152L6.57617 6.95599C6.84912 6.68304 6.96973 6.41644 6.97607 6.08002C6.97607 5.74994 6.84912 5.47064 6.57617 5.20404L1.80273 0.538513C1.59326 0.341736 1.35205 0.240173 1.06641 0.240173C0.482422 0.240173 0 0.7099 0 1.29388C0 1.58588 0.126953 1.85248 0.342773 2.07465L4.48779 6.08636L0.342773 10.0854C0.120605 10.3076 0 10.5742 0 10.8661C0 11.4438 0.482422 11.9199 1.06641 11.9199Z" fill="#988EA9"/>
</svg>
