<svg width="40" height="40" viewBox="0 0 40 40" fill="none" xmlns="http://www.w3.org/2000/svg">
<g clip-path="url(#clip0_2795_839)">
<path d="M12.93 27.0701C11.9749 26.1476 11.2131 25.0442 10.689 23.8241C10.1649 22.6041 9.88904 21.2919 9.8775 19.9641C9.86596 18.6363 10.119 17.3195 10.6218 16.0905C11.1246 14.8616 11.8671 13.7451 12.8061 12.8061C13.745 11.8672 14.8615 11.1247 16.0905 10.6219C17.3194 10.1191 18.6362 9.86604 19.964 9.87757C21.2918 9.88911 22.604 10.165 23.824 10.6891C25.0441 11.2132 26.1475 11.975 27.07 12.9301C28.8916 14.8161 29.8995 17.3421 29.8767 19.9641C29.854 22.5861 28.8023 25.0942 26.9482 26.9483C25.0941 28.8023 22.586 29.854 19.964 29.8768C17.342 29.8996 14.816 28.8917 12.93 27.0701ZM25.66 25.6601C27.1611 24.159 28.0045 22.123 28.0045 20.0001C28.0045 17.8772 27.1611 15.8412 25.66 14.3401C24.1589 12.839 22.1229 11.9956 20 11.9956C17.8771 11.9956 15.8411 12.839 14.34 14.3401C12.8389 15.8412 11.9956 17.8772 11.9956 20.0001C11.9956 22.123 12.8389 24.159 14.34 25.6601C15.8411 27.1612 17.8771 28.0045 20 28.0045C22.1229 28.0045 24.1589 27.1612 25.66 25.6601ZM16.7 19.2901L19 21.6001L23.3 17.3001L24.7 18.7201L19 24.4001L15.3 20.7001L16.7 19.2801V19.2901Z" fill="#43B929"/>
</g>
<defs>
<clipPath id="clip0_2795_839">
<rect width="20" height="20" fill="white" transform="translate(10 10)"/>
</clipPath>
</defs>
</svg>
