<svg width="74" height="74" viewBox="0 0 74 74" fill="none" xmlns="http://www.w3.org/2000/svg">
<path d="M29.2917 66.8619C31.8099 67.5094 34.3999 67.8357 37 67.8332C54.0292 67.8332 67.8333 54.0291 67.8333 36.9998C67.8333 19.9706 54.0292 6.1665 37 6.1665C19.9707 6.1665 6.16666 19.9706 6.16666 36.9998C6.16666 38.042 6.21805 39.0698 6.32082 40.0832" stroke="#332E3C" stroke-width="3" stroke-linecap="round" stroke-linejoin="round"/>
<path d="M24.6944 26.0293H24.6666M49.3333 26.0293H49.3056M46.25 49.3331C43.5835 47.3277 40.3364 46.2453 37 46.2498C34.1941 46.2498 31.5579 47.0021 29.2916 48.3156M15.4814 43.1665L8.8214 49.589C7.97671 50.4089 7.30629 51.3908 6.85037 52.476C6.39445 53.5613 6.16241 54.7274 6.16816 55.9045C6.17392 57.0816 6.41736 58.2454 6.88388 59.3261C7.3504 60.4069 8.03039 61.3822 8.88306 62.1937C12.5214 65.6409 18.3797 65.5823 21.9564 62.132C22.811 61.3198 23.4914 60.3422 23.9564 59.2588C24.4213 58.1754 24.6611 57.0087 24.6611 55.8297C24.6611 54.6507 24.4213 53.484 23.9564 52.4006C23.4914 51.3172 22.811 50.3396 21.9564 49.5274L15.4814 43.1665Z" stroke="#332E3C" stroke-width="3" stroke-linecap="round" stroke-linejoin="round"/>
</svg>
