<svg width="16" height="16" viewBox="0 0 16 16" fill="none" xmlns="http://www.w3.org/2000/svg">
<path d="M4.97351 12.8935H3.69348C1.73348 12.7535 0.853516 11.2469 0.853516 9.90689C0.853516 8.56689 1.73349 7.05355 3.66016 6.92022C3.93349 6.89355 4.17348 7.10689 4.19348 7.38689C4.21348 7.66022 4.00685 7.90022 3.72685 7.92022C2.43351 8.01356 1.85352 8.98688 1.85352 9.91355C1.85352 10.8402 2.43351 11.8136 3.72685 11.9069H4.97351C5.24684 11.9069 5.47351 12.1336 5.47351 12.4069C5.47351 12.6802 5.24684 12.8935 4.97351 12.8935Z" fill="#292D32"/>
<path d="M11.1132 12.8935C11.0999 12.8935 11.0932 12.8935 11.0799 12.8935C10.8066 12.8935 10.5532 12.6668 10.5532 12.3935C10.5532 12.1068 10.7666 11.8935 11.0466 11.8935C11.8666 11.8935 12.5999 11.6068 13.1732 11.0935C14.2132 10.1868 14.2799 8.88017 13.9999 7.96017C13.7199 7.04683 12.9399 6.00016 11.5799 5.8335C11.3599 5.80683 11.1865 5.64017 11.1465 5.42017C10.8799 3.82017 10.0199 2.7135 8.71324 2.3135C7.36657 1.8935 5.79322 2.30683 4.81322 3.3335C3.85988 4.32683 3.63989 5.72017 4.19322 7.2535C4.28655 7.5135 4.15325 7.80016 3.89325 7.89349C3.63325 7.98683 3.34657 7.8535 3.25324 7.5935C2.57991 5.7135 2.88658 3.9135 4.09325 2.64683C5.32658 1.3535 7.30657 0.84016 9.00658 1.36016C10.5666 1.84016 11.6666 3.12683 12.0666 4.91349C13.4266 5.22016 14.5199 6.2535 14.9532 7.68017C15.4266 9.2335 14.9999 10.8335 13.8332 11.8468C13.0932 12.5135 12.1266 12.8935 11.1132 12.8935Z" fill="#292D32"/>
<path d="M7.99996 14.8532C6.65996 14.8532 5.40664 14.1399 4.71997 12.9865C4.64664 12.8732 4.57331 12.7399 4.51331 12.5932C4.28664 12.1199 4.16663 11.5799 4.16663 11.0199C4.16663 8.90652 5.88663 7.18652 7.99996 7.18652C10.1133 7.18652 11.8333 8.90652 11.8333 11.0199C11.8333 11.5865 11.7133 12.1199 11.4733 12.6132C11.42 12.7399 11.3466 12.8732 11.2666 12.9999C10.5933 14.1399 9.33996 14.8532 7.99996 14.8532ZM7.99996 8.18652C6.43996 8.18652 5.16663 9.45986 5.16663 11.0199C5.16663 11.4332 5.2533 11.8199 5.41996 12.1732C5.4733 12.2865 5.51995 12.3799 5.57328 12.4665C6.07995 13.3265 7.00662 13.8532 7.99329 13.8532C8.97995 13.8532 9.90662 13.3265 10.4066 12.4799C10.4666 12.3799 10.52 12.2865 10.56 12.1932C10.74 11.8265 10.8266 11.4399 10.8266 11.0265C10.8333 9.45985 9.55996 8.18652 7.99996 8.18652Z" fill="#292D32"/>
<path d="M7.61989 12.1802C7.49323 12.1802 7.36658 12.1336 7.26658 12.0336L6.60655 11.3736C6.41321 11.1802 6.41321 10.8602 6.60655 10.6669C6.79988 10.4736 7.11988 10.4736 7.31321 10.6669L7.63324 10.9869L8.69989 10.0002C8.90656 9.81355 9.21989 9.82688 9.40656 10.0269C9.59322 10.2269 9.5799 10.5469 9.3799 10.7336L7.9599 12.0469C7.8599 12.1336 7.73989 12.1802 7.61989 12.1802Z" fill="#292D32"/>
</svg>
