<svg width="45" height="45" viewBox="0 0 45 45" fill="none" xmlns="http://www.w3.org/2000/svg">
<path d="M9.84375 16.875V28.125C9.84375 28.498 9.69559 28.8556 9.43187 29.1194C9.16815 29.3831 8.81046 29.5312 8.4375 29.5312C8.06454 29.5312 7.70685 29.3831 7.44313 29.1194C7.17941 28.8556 7.03125 28.498 7.03125 28.125V16.875C7.03125 16.502 7.17941 16.1444 7.44313 15.8806C7.70685 15.6169 8.06454 15.4688 8.4375 15.4688C8.81046 15.4688 9.16815 15.6169 9.43187 15.8806C9.69559 16.1444 9.84375 16.502 9.84375 16.875ZM15.4688 4.21875C15.0958 4.21875 14.7381 4.36691 14.4744 4.63063C14.2107 4.89435 14.0625 5.25204 14.0625 5.625V39.375C14.0625 39.748 14.2107 40.1056 14.4744 40.3694C14.7381 40.6331 15.0958 40.7812 15.4688 40.7812C15.8417 40.7812 16.1994 40.6331 16.4631 40.3694C16.7268 40.1056 16.875 39.748 16.875 39.375V5.625C16.875 5.25204 16.7268 4.89435 16.4631 4.63063C16.1994 4.36691 15.8417 4.21875 15.4688 4.21875ZM22.5 9.84375C22.127 9.84375 21.7694 9.99191 21.5056 10.2556C21.2419 10.5194 21.0938 10.877 21.0938 11.25V33.75C21.0938 34.123 21.2419 34.4806 21.5056 34.7444C21.7694 35.0081 22.127 35.1562 22.5 35.1562C22.873 35.1562 23.2306 35.0081 23.4944 34.7444C23.7581 34.4806 23.9062 34.123 23.9062 33.75V11.25C23.9062 10.877 23.7581 10.5194 23.4944 10.2556C23.2306 9.99191 22.873 9.84375 22.5 9.84375ZM29.5312 15.4688C29.1583 15.4688 28.8006 15.6169 28.5369 15.8806C28.2732 16.1444 28.125 16.502 28.125 16.875V28.125C28.125 28.498 28.2732 28.8556 28.5369 29.1194C28.8006 29.3831 29.1583 29.5312 29.5312 29.5312C29.9042 29.5312 30.2619 29.3831 30.5256 29.1194C30.7893 28.8556 30.9375 28.498 30.9375 28.125V16.875C30.9375 16.502 30.7893 16.1444 30.5256 15.8806C30.2619 15.6169 29.9042 15.4688 29.5312 15.4688ZM36.5625 12.6562C36.1895 12.6562 35.8319 12.8044 35.5681 13.0681C35.3044 13.3319 35.1562 13.6895 35.1562 14.0625V30.9375C35.1562 31.3105 35.3044 31.6681 35.5681 31.9319C35.8319 32.1956 36.1895 32.3438 36.5625 32.3438C36.9355 32.3438 37.2931 32.1956 37.5569 31.9319C37.8206 31.6681 37.9688 31.3105 37.9688 30.9375V14.0625C37.9688 13.6895 37.8206 13.3319 37.5569 13.0681C37.2931 12.8044 36.9355 12.6562 36.5625 12.6562Z" fill="#332E3C"/>
</svg>
